<?xml version="1.0" encoding="utf-8"?><!-- Uploaded to: SVG Repo, www.svgrepo.com, Generator: SVG Repo Mixer Tools -->
<svg fill="#000000" width="800px" height="800px" viewBox="0 0 24 24" id="car-alert-left" data-name="Flat Color" xmlns="http://www.w3.org/2000/svg" class="icon flat-color"><path id="primary" d="M3.51,11.84l1.25-.31A1,1,0,0,1,6,12.5V13a1,1,0,0,0,1,1h4a1,1,0,0,0,1-1V8a1,1,0,0,1,1-1h3.38a2,2,0,0,1,1.8,1.11l1.57,3.14,1.14.57A2,2,0,0,1,22,13.61V17a2,2,0,0,1-2,2H4a2,2,0,0,1-2-2V13.78A2,2,0,0,1,3.51,11.84Z" style="fill: rgb(0, 0, 0);"></path><path id="secondary" d="M17,15a3,3,0,1,1-3,3A3,3,0,0,1,17,15ZM4,18a3,3,0,1,0,3-3A3,3,0,0,0,4,18Zm3.5-6.5A1.5,1.5,0,1,0,9,10,1.5,1.5,0,0,0,7.5,11.5ZM9,8a1,1,0,0,0,1-1V4A1,1,0,0,0,8,4V7A1,1,0,0,0,9,8Z" style="fill: rgb(44, 169, 188);"></path></svg>